<svg width="100" height="100" viewBox="0 0 100 100" fill="none" xmlns="http://www.w3.org/2000/svg">
<rect x="27.6055" y="88.9437" width="42.7445" height="3" transform="rotate(-56.476 27.6055 88.9437)" fill="black"/>
<path d="M52.0416 52.9058L56.4534 46.2463L58.1207 47.3509L53.7089 54.0104L52.0416 52.9058Z" stroke="black"/>
<path d="M71 8L71.4013 15.7055C71.4545 16.7282 72.2718 17.5455 73.2945 17.5987L81 18L73.2945 18.4013C72.2718 18.4545 71.4545 19.2718 71.4013 20.2945L71 28L70.5987 20.2945C70.5455 19.2718 69.7282 18.4545 68.7055 18.4013L61 18L68.7055 17.5987C69.7282 17.5455 70.5455 16.7282 70.5987 15.7055L71 8Z" fill="black"/>
<path d="M32 36L32.5565 47.5076C32.6059 48.5304 33.4198 49.3506 34.4421 49.4079L45 50L34.4421 50.5921C33.4198 50.6494 32.6059 51.4696 32.5565 52.4924L32 64L31.4435 52.4924C31.3941 51.4696 30.5802 50.6494 29.5579 50.5921L19 50L29.5579 49.4079C30.5802 49.3506 31.3941 48.5304 31.4435 47.5076L32 36Z" fill="black"/>
<path d="M37.5 21L37.6785 24.4282C37.7318 25.451 38.549 26.2682 39.5718 26.3215L43 26.5L39.5718 26.6785C38.549 26.7318 37.7318 27.549 37.6785 28.5718L37.5 32L37.3215 28.5718C37.2682 27.549 36.451 26.7318 35.4282 26.6785L32 26.5L35.4282 26.3215C36.451 26.2682 37.2682 25.451 37.3215 24.4282L37.5 21Z" fill="black"/>
<path d="M70 47L70.4653 57.5589C70.5103 58.5809 71.3194 59.4042 72.3405 59.4671L81 60L72.3405 60.5329C71.3194 60.5958 70.5103 61.4191 70.4653 62.4411L70 73L69.5347 62.4411C69.4897 61.4191 68.6806 60.5958 67.6595 60.5329L59 60L67.6595 59.4671C68.6806 59.4042 69.4897 58.5809 69.5347 57.5589L70 47Z" fill="black"/>
<path d="M50.8211 47.1935C48.3954 44.4284 45.9244 41.9127 45.3157 39.6935C43.2469 32.1518 51.6627 28.0345 61.3211 29.1935C68.5922 30.2485 75.3154 33.1935 79.3157 37.6935C83.3159 42.1935 79.1309 44.387 75.8154 44.6935C72.5 45 56.5073 41.618 49.3154 31.1935" stroke="black" stroke-linecap="round"/>
<path d="M49.503 31.5C48.5946 29.7502 47.8319 27.1367 47.9999 25C48.7668 17.1411 52.2717 13.5801 63.0017 11" stroke="black"/>
</svg>
