<svg width="100" height="100" viewBox="0 0 100 100" fill="none" xmlns="http://www.w3.org/2000/svg">
<path d="M63.5718 16.5103C62.7416 13.7042 61.1478 12.3874 57.6935 12.8097C43.6088 14.9207 34.0441 16.8932 21.2203 21.7161C17.3688 23.4934 16.5699 25.2578 17.1083 29.4482C21.527 53.809 30.0831 90.1454 30.554 90.4372C31.0248 90.7289 31.8232 92.6914 34.2455 93.0634C44.0858 94.689 73.6228 86.0296 74.5925 83.4208C75.5621 80.812 75.2949 77.4411 75.2949 77.4411L63.5718 16.5103Z" stroke="black" stroke-width="3"/>
<path d="M29.2055 18.571C28.4013 14.3211 32.8463 13.0985 33.8992 12.7262C34.9521 12.354 42.5183 10.7959 42.5183 10.7959L66.157 7.09234C71.5038 6.53219 73.0854 9.32769 73.5344 10.8437C73.9835 12.3597 77.7506 78.5247 77.2509 78.5078C76.8509 81.2083 74.7919 83.1352 73.5502 84.3859" stroke="black" stroke-width="3"/>
<path d="M30.4106 52.7829L45.2791 49.3931M60.1476 46.0034L45.2791 49.3931M45.2791 49.3931L50.1693 70.8428L40.9447 30.381" stroke="black" stroke-width="3" stroke-linecap="round" stroke-linejoin="round"/>
</svg>
