<svg width="100" height="100" viewBox="0 0 100 100" fill="none" xmlns="http://www.w3.org/2000/svg">
<g clip-path="url(#clip0_147_41972)">
<path d="M41.8292 16.8416L42.1459 17H42.5H57.5H57.8541L58.1708 16.8416L63.8541 14H86V36.1459L83.1584 41.8292L83 42.1459V42.5V57.5V57.8541L83.1584 58.1708L86 63.8541V86H63.8541L58.1708 83.1584L57.8541 83H57.5H42.5H42.1459L41.8292 83.1584L36.1459 86H14V63.8541L16.8416 58.1708L17 57.8541V57.5V42.5V42.1459L16.8416 41.8292L14 36.1459V14H36.1459L41.8292 16.8416Z" stroke="black" stroke-width="3"/>
<rect x="22.5" y="22.5" width="17" height="17" fill="black"/>
<rect x="41.5" y="22.5" width="17" height="17" fill="black"/>
<rect x="60.5" y="22.5" width="17" height="17" fill="black"/>
<rect x="22.5" y="41.5" width="17" height="17" fill="black"/>
<rect x="41.5" y="41.5" width="17" height="17" fill="black"/>
<rect x="60.5" y="41.5" width="17" height="17" fill="black"/>
<rect x="22.5" y="60.5" width="17" height="17" fill="black"/>
<rect x="41.5" y="60.5" width="17" height="17" fill="black"/>
<rect x="60.5" y="60.5" width="17" height="17" fill="black"/>
</g>
<defs>
<clipPath id="clip0_147_41972">
<rect width="75" height="75" fill="white" transform="translate(12.5 12.5)"/>
</clipPath>
</defs>
</svg>
