<svg width="100" height="100" viewBox="0 0 100 100" fill="none" xmlns="http://www.w3.org/2000/svg">
<path d="M72.2266 18.5C62.8444 12.6265 40.2257 11 35.2266 11C30.2275 11 4.32092 53.4908 7.22661 57C10.1323 60.5092 19.2266 66.4999 19.7266 68C20.2266 69.5001 22.2275 86.5002 29.2275 86.5002C36.2275 86.5002 34.7266 80 36.7266 80C38.7266 80 38.2257 87.5 45.2266 87.5C52.2275 87.5 52.2275 78.0002 54.2275 78.0002C56.2275 78.0002 57.2275 89.5002 62.7275 88.5002C69.7245 87.2281 73.1033 78.9616 74.2266 71L85.2266 66C88.7604 54.2181 90.1998 47.4761 85.2266 33.5C82.3629 26.7249 79.1629 23.5865 72.2266 18.5Z" stroke="black" stroke-width="3"/>
<path d="M25.7275 55.5002L44.2275 37.0002" stroke="black" stroke-width="3" stroke-linecap="round"/>
<path d="M26.7275 39.0002L43.2275 55.5002" stroke="black" stroke-width="3" stroke-linecap="round"/>
<path d="M76.7275 45.5002C76.7275 50.8555 71.7569 55.5002 65.2275 55.5002C58.6981 55.5002 53.7275 50.8555 53.7275 45.5002C53.7275 40.145 58.6981 35.5002 65.2275 35.5002C71.7569 35.5002 76.7275 40.145 76.7275 45.5002Z" stroke="black" stroke-width="3"/>
</svg>
