<svg width="100" height="100" viewBox="0 0 100 100" fill="none" xmlns="http://www.w3.org/2000/svg">
<path d="M69.4896 58.6373L57.2578 62.9184" stroke="black" stroke-width="3"/>
<path d="M68.8776 54.3562L53.5879 59.2489" stroke="black" stroke-width="3"/>
<path d="M45.6369 25L26.6777 40.2897L61.5382 74.5386H87.2249C87.784 61.6128 83.1965 58.9119 70.1004 58.6373L63.9846 37.8433C56.0339 36.0086 52.3644 33.5622 45.6369 25Z" stroke="black" stroke-width="3"/>
<path d="M30.3477 36.6201L63.8304 69.6458H87.8369" stroke="black" stroke-width="3"/>
<path d="M67.0427 49.4635L49.3066 54.9678" stroke="black" stroke-width="3"/>
<path d="M12.2845 74.4907C16.9846 71.925 20.7578 70.5541 25.3401 71.2368C31.2881 72.3417 34.7529 70.5259 40.7694 67.3914" stroke="black" stroke-width="3"/>
<path d="M13.1703 67.9281C17.7699 66.1515 17.622 65.558 22.8132 66.155C30.0805 67.4953 29.7847 66.3085 37.7969 63.0509" stroke="black" stroke-width="3"/>
<path d="M12.9909 62.1513C16.5808 60.7647 17.5495 60.3849 21.6012 60.8509C27.2732 61.897 27.3579 61.4455 33.6114 58.903" stroke="black" stroke-width="3"/>
<path d="M45.6377 25.6116C47.8047 36.0324 51.6594 38.7957 63.9853 37.8433" stroke="black" stroke-width="3"/>
</svg>
