<svg width="100" height="103" viewBox="0 0 100 103" fill="none" xmlns="http://www.w3.org/2000/svg">
<rect x="69.7904" y="89.9701" width="25.4211" height="6.47368" transform="rotate(-121.817 69.7904 89.9701)" stroke="black" stroke-width="3" stroke-linejoin="round"/>
<rect x="57.4342" y="66.0457" width="10.5263" height="2.63158" transform="rotate(-121.817 57.4342 66.0457)" stroke="black" stroke-width="2.63158"/>
<path d="M27.5716 15.4174C38.6001 8.57497 53.0873 11.9685 59.9297 22.997C66.7721 34.0255 63.3786 48.5127 52.3501 55.3551C41.3216 62.1975 26.8344 58.804 19.992 47.7755C13.1496 36.747 16.5431 22.2598 27.5716 15.4174Z" stroke="black" stroke-width="3"/>
<path d="M42.1182 41.8562L38.2563 37.7562C38.9229 37.0602 39.5074 36.3837 40.0099 35.7267C40.5351 35.0557 40.9555 34.4183 41.2712 33.8144C41.5729 33.1879 41.7813 32.5879 41.8962 32.0144C42.0338 31.4269 42.0484 30.8687 41.9399 30.3398C41.8541 29.7968 41.6635 29.2873 41.3683 28.8115C41.0028 28.2223 40.5321 27.7925 39.9564 27.5221C39.3806 27.2517 38.7435 27.1605 38.045 27.2487C37.3465 27.3369 36.6687 27.5848 36.0116 27.9925C35.1505 28.5267 34.4949 29.3415 34.0447 30.4367C33.5944 31.532 33.4219 32.8473 33.5271 34.3825L28.9462 33.6C28.9787 31.4772 29.4146 29.5749 30.254 27.893C31.1161 26.197 32.3062 24.878 33.8244 23.9361C35.2746 23.0363 36.7603 22.5225 38.2815 22.3947C39.8027 22.2668 41.2265 22.5132 42.553 23.1338C43.8654 23.7317 44.9223 24.6765 45.7237 25.9681C46.2017 26.7385 46.521 27.6073 46.6818 28.5746C46.8285 29.5192 46.8111 30.5028 46.6297 31.5255C46.4482 32.5481 46.1226 33.5661 45.6529 34.5793C45.1691 35.5699 44.5498 36.519 43.7949 37.4267L44.8374 40.1692L42.1182 41.8562ZM44.1 47.7818C43.6079 46.9887 43.4452 46.1953 43.6117 45.4016C43.7642 44.5852 44.2257 43.938 44.9961 43.46C45.7892 42.9679 46.56 42.8192 47.3084 43.0139C48.0428 43.1859 48.6841 43.7138 49.2324 44.5975C49.7245 45.3906 49.8942 46.1954 49.7417 47.0118C49.5752 47.8055 49.118 48.4344 48.3702 48.8983C47.5545 49.4044 46.7724 49.5601 46.024 49.3655C45.2755 49.1708 44.6342 48.6429 44.1 47.7818Z" fill="black"/>
<path d="M14.0006 27.5C12.5 36 13.0004 37 14.5005 44.5M62.0005 20C66.1073 25.4288 66.5574 30.8147 66.5005 33" stroke="#131111"/>
<path d="M11.0526 26.1554C9.37816 36.663 9.94947 37.8971 11.6775 47.1597M64.5 17.5C69.1797 24.1953 70.0957 30.363 70.0385 33.0634" stroke="#131111"/>
</svg>
